<?xml version="1.0" encoding="UTF-8" standalone="no"?>
<!DOCTYPE svg PUBLIC "-//W3C//DTD SVG 1.1//EN"
 "http://www.w3.org/Graphics/SVG/1.1/DTD/svg11.dtd">
<!-- Generated by graphviz version 2.40.1 (20161225.0304)
 -->
<!-- Title: al_experiment Pages: 1 -->
<svg width="562pt" height="295pt"
 viewBox="0.00 0.00 561.78 294.74" xmlns="http://www.w3.org/2000/svg" xmlns:xlink="http://www.w3.org/1999/xlink">
<g id="graph0" class="graph" transform="scale(1 1) rotate(0) translate(4 290.7401)">
<title>al_experiment</title>
<polygon fill="#ffffff" stroke="transparent" points="-4,4 -4,-290.7401 557.7762,-290.7401 557.7762,4 -4,4"/>
<!-- dataset -->
<g id="node1" class="node">
<title>dataset</title>
<ellipse fill="none" stroke="#000000" cx="116.9885" cy="-259.8701" rx="45.4919" ry="18"/>
<text text-anchor="middle" x="116.9885" y="-256.1701" font-family="Times,serif" font-size="14.00" fill="#000000">dataset</text>
</g>
<!-- binary_classification_scores -->
<g id="node4" class="node">
<title>binary_classification_scores</title>
<polygon fill="none" stroke="#000000" points="342.9885,-196 124.9885,-196 124.9885,-160 342.9885,-160 342.9885,-196"/>
<text text-anchor="middle" x="233.9885" y="-174.3" font-family="Times,serif" font-size="14.00" fill="#000000">binary_classification_scores</text>
</g>
<!-- dataset&#45;&gt;binary_classification_scores -->
<g id="edge1" class="edge">
<title>dataset&#45;&gt;binary_classification_scores</title>
<path fill="none" stroke="#000000" d="M139.5472,-244.0847C156.6691,-232.1038 180.4974,-215.4301 199.9351,-201.8287"/>
<polygon fill="#000000" stroke="#000000" points="202.0533,-204.6183 208.2399,-196.0174 198.04,-198.883 202.0533,-204.6183"/>
</g>
<!-- classifier -->
<g id="node2" class="node">
<title>classifier</title>
<ellipse fill="none" stroke="#000000" cx="233.9885" cy="-259.8701" rx="53.0913" ry="18"/>
<text text-anchor="middle" x="233.9885" y="-256.1701" font-family="Times,serif" font-size="14.00" fill="#000000">classifier</text>
</g>
<!-- classifier&#45;&gt;binary_classification_scores -->
<g id="edge2" class="edge">
<title>classifier&#45;&gt;binary_classification_scores</title>
<path fill="none" stroke="#000000" d="M233.9885,-241.7004C233.9885,-231.313 233.9885,-218.0579 233.9885,-206.3318"/>
<polygon fill="#000000" stroke="#000000" points="237.4886,-206.1188 233.9885,-196.1188 230.4886,-206.1189 237.4886,-206.1188"/>
</g>
<!-- **kwargs -->
<g id="node3" class="node">
<title>**kwargs</title>
<ellipse fill="none" stroke="#000000" cx="391.9885" cy="-259.8701" rx="86.0347" ry="26.7407"/>
<text text-anchor="middle" x="391.9885" y="-263.6701" font-family="Times,serif" font-size="14.00" fill="#000000">T=10</text>
<text text-anchor="middle" x="391.9885" y="-248.6701" font-family="Times,serif" font-size="14.00" fill="#000000">batch_size=20</text>
</g>
<!-- **kwargs&#45;&gt;binary_classification_scores -->
<g id="edge3" class="edge">
<title>**kwargs&#45;&gt;binary_classification_scores</title>
<path fill="none" stroke="#000000" d="M347.1346,-236.6284C325.421,-225.3771 299.4457,-211.9176 277.8625,-200.734"/>
<polygon fill="#000000" stroke="#000000" points="279.3959,-197.5866 268.9068,-196.0935 276.1754,-203.8018 279.3959,-197.5866"/>
</g>
<!-- gp_al_q -->
<g id="node5" class="node">
<title>gp_al_q</title>
<polygon fill="none" stroke="#000000" points="228.4885,-109 109.4885,-109 109.4885,-73 228.4885,-73 228.4885,-109"/>
<text text-anchor="middle" x="168.9885" y="-87.3" font-family="Times,serif" font-size="14.00" fill="#000000">gp_al; random</text>
</g>
<!-- binary_classification_scores&#45;&gt;gp_al_q -->
<g id="edge4" class="edge">
<title>binary_classification_scores&#45;&gt;gp_al_q</title>
<path fill="none" stroke="#000000" d="M220.5204,-159.9735C211.2822,-147.6085 198.8762,-131.0036 188.5518,-117.1847"/>
<polygon fill="#000000" stroke="#000000" points="191.2284,-114.9196 182.4393,-109.0034 185.6207,-119.1093 191.2284,-114.9196"/>
<text text-anchor="middle" x="223.9885" y="-130.8" font-family="Times,serif" font-size="14.00" fill="#000000">1...N</text>
</g>
<!-- gp_al_r -->
<g id="node6" class="node">
<title>gp_al_r</title>
<polygon fill="none" stroke="#000000" points="430.4885,-109 323.4885,-109 323.4885,-73 430.4885,-73 430.4885,-109"/>
<text text-anchor="middle" x="376.9885" y="-87.3" font-family="Times,serif" font-size="14.00" fill="#000000">gp_al; active</text>
</g>
<!-- binary_classification_scores&#45;&gt;gp_al_r -->
<g id="edge5" class="edge">
<title>binary_classification_scores&#45;&gt;gp_al_r</title>
<path fill="none" stroke="#000000" d="M263.6182,-159.9735C285.3803,-146.7336 315.1326,-128.6326 338.6977,-114.2958"/>
<polygon fill="#000000" stroke="#000000" points="340.6727,-117.1911 347.3967,-109.0034 337.0344,-111.2109 340.6727,-117.1911"/>
<text text-anchor="middle" x="332.9885" y="-130.8" font-family="Times,serif" font-size="14.00" fill="#000000">1...N</text>
</g>
<!-- score_active; mean, error -->
<g id="node7" class="node">
<title>score_active; mean, error</title>
<ellipse fill="none" stroke="#000000" cx="129.9885" cy="-18" rx="129.9769" ry="18"/>
<text text-anchor="middle" x="129.9885" y="-14.3" font-family="Times,serif" font-size="14.00" fill="#000000">score_active; mean, error</text>
</g>
<!-- gp_al_q&#45;&gt;score_active; mean, error -->
<g id="edge6" class="edge">
<title>gp_al_q&#45;&gt;score_active; mean, error</title>
<path fill="none" stroke="#000000" d="M159.348,-72.9551C154.848,-64.5319 149.3972,-54.3292 144.4199,-45.0128"/>
<polygon fill="#000000" stroke="#000000" points="147.4525,-43.2613 139.6532,-36.0904 141.2783,-46.5598 147.4525,-43.2613"/>
</g>
<!-- score_random; mean, error -->
<g id="node8" class="node">
<title>score_random; mean, error</title>
<ellipse fill="none" stroke="#000000" cx="415.9885" cy="-18" rx="137.5759" ry="18"/>
<text text-anchor="middle" x="415.9885" y="-14.3" font-family="Times,serif" font-size="14.00" fill="#000000">score_random; mean, error</text>
</g>
<!-- gp_al_r&#45;&gt;score_random; mean, error -->
<g id="edge7" class="edge">
<title>gp_al_r&#45;&gt;score_random; mean, error</title>
<path fill="none" stroke="#000000" d="M386.6289,-72.9551C391.129,-64.5319 396.5797,-54.3292 401.557,-45.0128"/>
<polygon fill="#000000" stroke="#000000" points="404.6986,-46.5598 406.3238,-36.0904 398.5245,-43.2613 404.6986,-46.5598"/>
</g>
</g>
</svg>
